# xmcd
#
# Track frame offsets:
#  150
#  18702
#  45250
#  58734
#  75078
#  95830
#  110289
#  125787
#  142367
#  153061
#  173266
#  186119
#  207092
#  239899
#  254712
#  270500
#  288563
#  317959
#  333932
#  345210
#
# Disc length: 4800 seconds
#
# Revision: 0
# Processed by: cddbd v1.5.1PL2 Copyright (c) Steve Scherf et al.
# Submitted via: Collectorz.com_Music_Collector 6.11
#
DISCID=2212be14
DTITLE=Todd Snider - Aladdin Theatre, Portland - 08/10/2005
DYEAR=2005
DGENRE=Alt Country
TTITLE0=Can't Complain
TTITLE1=Just Like Old Times
TTITLE2=Ballad Of The Kingsmen
TTITLE3=Betty Was Black, Willie Was White
TTITLE4=Tillamook County Jail
TTITLE5=Tension
TTITLE6=Highland Street Incident
TTITLE7=Broke
TTITLE8=Rocket Fuel
TTITLE9=Beer Run
TTITLE10=Train Song
TTITLE11=You Think You Know Somebody
TTITLE12=Statisticians Blues
TTITLE13=Db Cooper
TTITLE14=Talkin' Seatle Grunge Rock Blues
TTITLE15=Incarcerated
TTITLE16=Ccrrswam
TTITLE17=Rose City
TTITLE18=Gonna Cry No More
TTITLE19=Double Wide Blues
EXTD=
EXTT0=
EXTT1=
EXTT2=
EXTT3=
EXTT4=
EXTT5=
EXTT6=
EXTT7=
EXTT8=
EXTT9=
EXTT10=
EXTT11=
EXTT12=
EXTT13=
EXTT14=
EXTT15=
EXTT16=
EXTT17=
EXTT18=
EXTT19=
PLAYORDER=
